# xmcd CD database file
#
# Track frame offsets:
#	150
#	16080
#	29582
#	42077
#	58890
#	74187
#	86322
#	101087
#	117497
#	131837
#	149720
#	174475
#	198370
#	210480
#	224090
#	240352
#	254530
#	265717
#	285497
#
# Disc length: 4037 seconds
#
# Revision: 0
# Processed by: cddbd v1.5.2PL0 Copyright (c) Steve Scherf et al.
# Submitted via: CDex 1.70beta2
#
DISCID=2a0fc313
DTITLE=Varios - Para Todos Los Gustos Vol 5
DYEAR=1900
DGENRE=Salsa
TTITLE0=La Rumba Del Planeta
TTITLE1=Cumbia Sobre El Mar
TTITLE2=Espiga De Amapola
TTITLE3=El Bombón
TTITLE4=No Salgas De Tu Barrio
TTITLE5=La Buchaca
TTITLE6=Asopao De Pollo
TTITLE7=Cañavera
TTITLE8=Fiesta De Los Ratones
TTITLE9=Regreso
TTITLE10=Donde Estara El Amor
TTITLE11=Siloe
TTITLE12=La Millonaria
TTITLE13=Sguate Cumbia
TTITLE14=Navideños
TTITLE15=Adios Compay Gato
TTITLE16=Con La Pata Pelá
TTITLE17=Refréscate La Memoria
TTITLE18=La Colegiala
EXTD=
EXTT0=
EXTT1=
EXTT2=
EXTT3=
EXTT4=
EXTT5=
EXTT6=
EXTT7=
EXTT8=
EXTT9=
EXTT10=
EXTT11=
EXTT12=
EXTT13=
EXTT14=
EXTT15=
EXTT16=
EXTT17=
EXTT18=
PLAYORDER=
